<?xml version="1.0" encoding="utf-8"?>
<svg version="1.1" xmlns:xlink="http://www.w3.org/1999/xlink" width="23px" height="20px" xmlns="http://www.w3.org/2000/svg">
  <g transform="matrix(1 0 0 1 -20 -23 )">
    <path d="M 22.0739182692308 6.63352272727273  C 22.6913060897436 7.9592803030303  23 9.33712121212121  23 10.7670454545455  C 23 12.3390151515152  22.7235576923077 13.8257575757576  22.1706730769231 15.2272727272727  L 21.8942307692308 15.9232954545455  L 19.3371394230769 16.3920454545455  C 19.1344150641026 17.1780303030303  18.7174479166667 17.8243371212121  18.0862379807692 18.3309659090909  C 17.4550280448718 18.8375946969697  16.7339743589744 19.0909090909091  15.9230769230769 19.0909090909091  L 15.9230769230769 19.5454545454545  C 15.9230769230769 19.6780303030303  15.8816105769231 19.7869318181818  15.7986778846154 19.8721590909091  C 15.7157451923077 19.9573863636364  15.6097756410256 20  15.4807692307692 20  L 14.5961538461538 20  C 14.4671474358974 20  14.3611778846154 19.9573863636364  14.2782451923077 19.8721590909091  C 14.1953125 19.7869318181818  14.1538461538462 19.6780303030303  14.1538461538462 19.5454545454545  L 14.1538461538462 11.3636363636364  C 14.1538461538462 11.2310606060606  14.1953125 11.1221590909091  14.2782451923077 11.0369318181818  C 14.3611778846154 10.9517045454545  14.4671474358974 10.9090909090909  14.5961538461538 10.9090909090909  L 15.4807692307692 10.9090909090909  C 15.6097756410256 10.9090909090909  15.7157451923077 10.9517045454545  15.7986778846154 11.0369318181818  C 15.8816105769231 11.1221590909091  15.9230769230769 11.2310606060606  15.9230769230769 11.3636363636364  L 15.9230769230769 11.8181818181818  C 16.5773237179487 11.8181818181818  17.1762820512821 11.9862689393939  17.7199519230769 12.3224431818182  C 18.2636217948718 12.6586174242424  18.6921073717949 13.1107954545455  19.0054086538462 13.6789772727273  L 19.9453125 13.5085227272727  C 20.2125400641026 12.6089015151515  20.3461538461538 11.6950757575758  20.3461538461538 10.7670454545455  C 20.3461538461538 9.3655303030303  19.9407051282051 8.04450757575758  19.1298076923077 6.80397727272727  C 18.3189102564103 5.56344696969697  17.2292668269231 4.57386363636363  15.8608774038462 3.83522727272727  C 14.4924879807692 3.09659090909091  13.0388621794872 2.72727272727273  11.5 2.72727272727273  C 9.96113782051282 2.72727272727273  8.50751201923077 3.09659090909091  7.13912259615385 3.83522727272727  C 5.77073317307692 4.57386363636363  4.68108974358974 5.56344696969697  3.87019230769231 6.80397727272727  C 3.05929487179487 8.04450757575758  2.65384615384615 9.3655303030303  2.65384615384615 10.7670454545455  C 2.65384615384615 11.6950757575758  2.78745993589744 12.6089015151515  3.0546875 13.5085227272727  L 3.99459134615385 13.6789772727273  C 4.30789262820513 13.1107954545455  4.73637820512821 12.6586174242424  5.28004807692308 12.3224431818182  C 5.82371794871795 11.9862689393939  6.42267628205128 11.8181818181818  7.07692307692308 11.8181818181818  L 7.07692307692308 11.3636363636364  C 7.07692307692308 11.2310606060606  7.11838942307692 11.1221590909091  7.20132211538462 11.0369318181818  C 7.28425480769231 10.9517045454545  7.39022435897436 10.9090909090909  7.51923076923077 10.9090909090909  L 8.40384615384615 10.9090909090909  C 8.53285256410256 10.9090909090909  8.63882211538462 10.9517045454545  8.72175480769231 11.0369318181818  C 8.8046875 11.1221590909091  8.84615384615385 11.2310606060606  8.84615384615385 11.3636363636364  L 8.84615384615385 19.5454545454545  C 8.84615384615385 19.6780303030303  8.8046875 19.7869318181818  8.72175480769231 19.8721590909091  C 8.63882211538462 19.9573863636364  8.53285256410256 20  8.40384615384615 20  L 7.51923076923077 20  C 7.39022435897436 20  7.28425480769231 19.9573863636364  7.20132211538462 19.8721590909091  C 7.11838942307692 19.7869318181818  7.07692307692308 19.6780303030303  7.07692307692308 19.5454545454545  L 7.07692307692308 19.0909090909091  C 6.26602564102564 19.0909090909091  5.54497195512821 18.8375946969697  4.91376201923077 18.3309659090909  C 4.28255208333333 17.8243371212121  3.86558493589744 17.1780303030303  3.66286057692308 16.3920454545455  L 1.10576923076923 15.9232954545455  L 0.829326923076923 15.2272727272727  C 0.276442307692308 13.8257575757576  0 12.3390151515152  0 10.7670454545455  C 0 9.33712121212121  0.30869391025641 7.9592803030303  0.926081730769231 6.63352272727273  C 1.54346955128205 5.30776515151515  2.3681891025641 4.15956439393939  3.40024038461538 3.18892045454545  C 4.43229166666667 2.21827651515151  5.65785256410256 1.44412878787879  7.07692307692308 0.866477272727273  C 8.49599358974359 0.288825757575757  9.97035256410256 0  11.5 0  C 13.0296474358974 0  14.5040064102564 0.288825757575757  15.9230769230769 0.866477272727273  C 17.3421474358974 1.44412878787879  18.5677083333333 2.21827651515151  19.5997596153846 3.18892045454545  C 20.6318108974359 4.15956439393939  21.456530448718 5.30776515151515  22.0739182692308 6.63352272727273  Z " fill-rule="nonzero" fill="#000000" stroke="none" transform="matrix(1 0 0 1 20 23 )" />
  </g>
</svg>