<?xml version="1.0" encoding="utf-8"?>
<svg version="1.1" xmlns:xlink="http://www.w3.org/1999/xlink" width="24px" height="35px" xmlns="http://www.w3.org/2000/svg">
  <defs>
    <filter x="328px" y="255px" width="24px" height="35px" filterUnits="userSpaceOnUse" id="filter11">
      <feOffset dx="5" dy="0" in="SourceAlpha" result="shadowOffsetInner" />
      <feGaussianBlur stdDeviation="2.5" in="shadowOffsetInner" result="shadowGaussian" />
      <feComposite in2="shadowGaussian" operator="atop" in="SourceAlpha" result="shadowComposite" />
      <feColorMatrix type="matrix" values="0 0 0 0 0.666666666666667  0 0 0 0 0.666666666666667  0 0 0 0 0.666666666666667  0 0 0 0.313725490196078 0  " in="shadowComposite" />
    </filter>
    <g id="widget12">
      <path d="M 13.5381944444444 11.4013671875  C 13.8460648148148 11.7106119791667  14 12.0768229166667  14 12.5  C 14 12.9231770833333  13.8460648148148 13.2893880208333  13.5381944444444 13.5986328125  L 2.64930555555556 24.5361328125  C 2.34143518518519 24.8453776041667  1.97685185185185 25  1.55555555555556 25  C 1.13425925925926 25  0.769675925925926 24.8453776041667  0.461805555555556 24.5361328125  C 0.153935185185185 24.2268880208333  0 23.8606770833333  0 23.4375  L 0 1.5625  C 0 1.13932291666666  0.153935185185185 0.773111979166663  0.461805555555556 0.4638671875  C 0.769675925925926 0.154622395833331  1.13425925925926 0  1.55555555555556 0  C 1.97685185185185 0  2.34143518518519 0.154622395833331  2.64930555555556 0.4638671875  L 13.5381944444444 11.4013671875  Z " fill-rule="nonzero" fill="#f2f2f2" stroke="none" transform="matrix(1 0 0 1 328 260 )" />
    </g>
  </defs>
  <g transform="matrix(1 0 0 1 -328 -255 )">
    <use xlink:href="#widget12" filter="url(#filter11)" />
    <use xlink:href="#widget12" />
  </g>
</svg>